<svg width="20" height="20" viewBox="0 0 20 20" fill="none" xmlns="http://www.w3.org/2000/svg">
<circle cx="10" cy="10" r="10" fill="#1D005A" fill-opacity="0.666667"/>
<path fill-rule="evenodd" clip-rule="evenodd" d="M11.0769 8.92308V4.07692C11.0769 3.48215 10.5948 3 10 3C9.40523 3 8.92308 3.48215 8.92308 4.07692V8.92308H4.07692C3.48215 8.92308 3 9.40523 3 10C3 10.5948 3.48215 11.0769 4.07692 11.0769H8.92308V15.9231C8.92308 16.5178 9.40523 17 10 17C10.5948 17 11.0769 16.5178 11.0769 15.9231V11.0769H15.9231C16.5178 11.0769 17 10.5948 17 10C17 9.40523 16.5178 8.92308 15.9231 8.92308H11.0769Z" fill="white"/>
<mask id="mask0_1581_352" style="mask-type:luminance" maskUnits="userSpaceOnUse" x="3" y="3" width="14" height="14">
<path fill-rule="evenodd" clip-rule="evenodd" d="M11.0769 8.92308V4.07692C11.0769 3.48215 10.5948 3 10 3C9.40523 3 8.92308 3.48215 8.92308 4.07692V8.92308H4.07692C3.48215 8.92308 3 9.40523 3 10C3 10.5948 3.48215 11.0769 4.07692 11.0769H8.92308V15.9231C8.92308 16.5178 9.40523 17 10 17C10.5948 17 11.0769 16.5178 11.0769 15.9231V11.0769H15.9231C16.5178 11.0769 17 10.5948 17 10C17 9.40523 16.5178 8.92308 15.9231 8.92308H11.0769Z" fill="white"/>
</mask>
<g mask="url(#mask0_1581_352)">
</g>
</svg>
