<svg width="30" height="36" viewBox="0 0 30 36" fill="none" xmlns="http://www.w3.org/2000/svg">
<path fill-rule="evenodd" clip-rule="evenodd" d="M14.978 18.5688C13.245 18.5688 11.835 16.8972 11.835 14.8428C11.835 12.7872 13.245 11.1156 14.978 11.1156C16.711 11.1156 18.121 12.7872 18.121 14.8428C18.121 16.8972 16.711 18.5688 14.978 18.5688ZM15 6C10.858 6 7.5 9.9156 7.5 14.7456C7.5 19.5648 14.918 30 15 30C15 30 22.5 19.5768 22.5 14.7456C22.5 9.9156 19.142 6 15 6Z" fill="white"/>
<mask id="mask0_2337_763" style="mask-type:luminance" maskUnits="userSpaceOnUse" x="7" y="6" width="16" height="24">
<path fill-rule="evenodd" clip-rule="evenodd" d="M14.978 18.5688C13.245 18.5688 11.835 16.8972 11.835 14.8428C11.835 12.7872 13.245 11.1156 14.978 11.1156C16.711 11.1156 18.121 12.7872 18.121 14.8428C18.121 16.8972 16.711 18.5688 14.978 18.5688ZM15 6C10.858 6 7.5 9.9156 7.5 14.7456C7.5 19.5648 14.918 30 15 30C15 30 22.5 19.5768 22.5 14.7456C22.5 9.9156 19.142 6 15 6Z" fill="white"/>
</mask>
<g mask="url(#mask0_2337_763)">
</g>
<path fill-rule="evenodd" clip-rule="evenodd" d="M15.015 17.9898C13.5091 17.9898 12.2839 16.5503 12.2839 14.7813C12.2839 13.0112 13.5091 11.5717 15.015 11.5717C16.5209 11.5717 17.7461 13.0112 17.7461 14.7813C17.7461 16.5503 16.5209 17.9898 15.015 17.9898ZM15.0341 7.16663C11.435 7.16663 8.51709 10.5384 8.51709 14.6976C8.51709 18.8474 14.9629 27.8333 15.0341 27.8333C15.0341 27.8333 21.5512 18.8578 21.5512 14.6976C21.5512 10.5384 18.6333 7.16663 15.0341 7.16663Z" fill="#FF2D55"/>
<mask id="mask1_2337_763" style="mask-type:luminance" maskUnits="userSpaceOnUse" x="8" y="7" width="14" height="21">
<path fill-rule="evenodd" clip-rule="evenodd" d="M15.015 17.9898C13.5091 17.9898 12.2839 16.5503 12.2839 14.7813C12.2839 13.0112 13.5091 11.5717 15.015 11.5717C16.5209 11.5717 17.7461 13.0112 17.7461 14.7813C17.7461 16.5503 16.5209 17.9898 15.015 17.9898ZM15.0341 7.16663C11.435 7.16663 8.51709 10.5384 8.51709 14.6976C8.51709 18.8474 14.9629 27.8333 15.0341 27.8333C15.0341 27.8333 21.5512 18.8578 21.5512 14.6976C21.5512 10.5384 18.6333 7.16663 15.0341 7.16663Z" fill="white"/>
</mask>
<g mask="url(#mask1_2337_763)">
</g>
<rect x="13.9773" y="20.3182" width="12.6818" height="4.22727" rx="2.11364" fill="white"/>
<rect x="18.2046" y="28.7727" width="12.6818" height="4.22727" rx="2.11364" transform="rotate(-90 18.2046 28.7727)" fill="white"/>
<rect x="15.1941" y="21.407" width="10.2479" height="2.04959" rx="1.02479" fill="#E99797"/>
<rect x="19.2932" y="27.5558" width="10.2479" height="2.04959" rx="1.02479" transform="rotate(-90 19.2932 27.5558)" fill="#E99797"/>
<ellipse cx="15" cy="14.5" rx="3" ry="3.5" fill="white"/>
</svg>
