<svg width="40" height="40" viewBox="0 0 40 40" fill="none" xmlns="http://www.w3.org/2000/svg">
<circle cx="20" cy="20" r="19" stroke="white" stroke-width="2"/>
<path fill-rule="evenodd" clip-rule="evenodd" d="M21.3499 19.6765V14.8303C21.3499 14.2356 20.8677 13.7534 20.2729 13.7534C19.6782 13.7534 19.196 14.2356 19.196 14.8303V19.6765H14.3499C13.7551 19.6765 13.2729 20.1586 13.2729 20.7534C13.2729 21.3482 13.7551 21.8303 14.3499 21.8303H19.196V26.6765C19.196 27.2713 19.6782 27.7534 20.2729 27.7534C20.8677 27.7534 21.3499 27.2713 21.3499 26.6765V21.8303H26.196C26.7908 21.8303 27.2729 21.3482 27.2729 20.7534C27.2729 20.1586 26.7908 19.6765 26.196 19.6765H21.3499Z" fill="white"/>
<mask id="mask0_1844_943" style="mask-type:luminance" maskUnits="userSpaceOnUse" x="13" y="13" width="15" height="15">
<path fill-rule="evenodd" clip-rule="evenodd" d="M21.3499 19.6765V14.8303C21.3499 14.2356 20.8677 13.7534 20.2729 13.7534C19.6782 13.7534 19.196 14.2356 19.196 14.8303V19.6765H14.3499C13.7551 19.6765 13.2729 20.1586 13.2729 20.7534C13.2729 21.3482 13.7551 21.8303 14.3499 21.8303H19.196V26.6765C19.196 27.2713 19.6782 27.7534 20.2729 27.7534C20.8677 27.7534 21.3499 27.2713 21.3499 26.6765V21.8303H26.196C26.7908 21.8303 27.2729 21.3482 27.2729 20.7534C27.2729 20.1586 26.7908 19.6765 26.196 19.6765H21.3499Z" fill="white"/>
</mask>
<g mask="url(#mask0_1844_943)">
</g>
</svg>
